<?xml version="1.0" encoding="utf-8"?>
<!-- Generator: Adobe Illustrator 23.0.1, SVG Export Plug-In . SVG Version: 6.00 Build 0)  -->
<svg version="1.1" id="Layer_1" xmlns="http://www.w3.org/2000/svg" xmlns:xlink="http://www.w3.org/1999/xlink" x="0px" y="0px"
	 viewBox="3004 1439.9 612 264.5" enable-background="new 3004 1439.9 612 264.5" xml:space="preserve">
<title>Desktop Copy 2</title>
<desc>Created with Sketch.</desc>
<g id="Group-4" transform="translate(164.000000, 182.000000)">
</g>
<g id="WCar-Leasing-Logo-2" transform="translate(0.000000, 154.000000)">
</g>
<rect x="1291.7" y="1436.8" fill="#FFFFFF" width="998.6" height="171.7"/>
<g id="Group-2_1_" transform="translate(221.000000, 29.000000)">
	<path id="Shape_22_" fill="#C90B1C" d="M1813.5,1544.6c7.2,0,13-5.8,13-13c0-7.2-5.8-13-13-13s-13,5.8-13,13
		C1800.5,1538.8,1806.2,1544.6,1813.5,1544.6"/>
	<path id="Shape_21_" fill="#C90B1C" d="M1848.6,1468.1c0-11.5-11.1-25-32.2-25c-18.3,0-30.3,13.5-30.3,24.5v7.2h24.1v-6.2
		c0-2.9,3.4-5.8,6.7-5.8c3.8,0,6.7,2.9,6.7,5.8c0,7.7-26.9,17.3-26.9,35.6c0,2.9,1.4,6.2,3.4,9.1h26c-1.9-2.4-2.9-4.8-2.9-7.7
		C1823.1,1492.2,1848.6,1487.9,1848.6,1468.1"/>
	<polygon id="Shape_20_" fill="#C90B1C" points="1361.7,1445.6 1354,1492.7 1345.8,1445.6 1330.4,1445.6 1322.2,1493.1 
		1314.5,1445.6 1291.4,1445.6 1310.2,1541.2 1330.4,1541.2 1338.1,1495.1 1345.8,1541.2 1365.5,1541.2 1384.8,1445.6 	"/>
	<polygon id="Shape_19_" fill="#C90B1C" points="1429,1445.6 1429,1482.1 1414.6,1482.1 1414.6,1445.6 1390.1,1445.6 1390.1,1541.2 
		1414.6,1541.2 1414.6,1503.2 1429,1503.2 1429,1541.2 1453.1,1541.2 1453.1,1445.6 	"/>
	<path id="Shape_18_" fill="#C90B1C" d="M1485.8,1509l4.8-34.1l4.8,34.1H1485.8z M1500.2,1541.2h22.6l-17.3-96.1h-28.9l-17.3,96.1
		h22.1l2.4-14.4h14.4L1500.2,1541.2z"/>
	<polygon id="Shape_17_" fill="#C90B1C" points="1572.4,1445.6 1517.1,1445.6 1517.1,1464.8 1533,1464.8 1533,1541.2 1557,1541.2 
		1557,1464.8 1572.4,1464.8 	"/>
	<path id="Shape_16_" fill="#C90B1C" d="M1609.5,1468.6c0-2.4,1-5.8,6.7-5.8c5.3,0,6.3,3.4,6.3,5.8v14.9h24.1v-17.3
		c0-13-13.5-23.6-30.3-23.6s-30.3,10.6-30.3,23.6v50.5c0,16.8,14.4,26.9,32.7,26.9c18.3,0,28.4-11.1,28.4-26.9v-13.9h-24.1v14.9
		c0,2.4-1,5.8-6.3,5.8s-6.7-2.9-6.7-5.8v-49H1609.5z"/>
	<path id="Shape_15_" fill="#C90B1C" d="M1747.5,1464.3c3.4,0,5.3,1.9,5.3,4.3v13.9c0,2.4-1.9,4.3-5.3,4.3h-5.8v-22.6H1747.5z
		 M1718.7,1445.6v96.1h23.1v-37h5.3c3.8,0,6.3,2.4,6.3,6.2v14.9c0,7.2,1.4,13,3.8,15.9h22.1c-1.9-3.4-2.9-9.6-2.9-15.9v-13.5
		c0-9.6-4.8-14.9-11.5-16.8c6.3-1.9,10.6-7.7,10.6-15.4v-12c0-13.5-9.6-22.6-24.5-22.6H1718.7z"/>
	<path id="Shape_14_" fill="#C90B1C" d="M1675.9,1509l4.8-34.1l4.8,34.1H1675.9z M1690.3,1541.2h22.6l-17.3-96.1h-28.9l-17.3,96.1
		h22.1l2.4-14.4h14.4L1690.3,1541.2z"/>
</g>
<rect x="1291" y="1611.2" fill="#C90B1C" width="1000" height="254"/>
<linearGradient id="Shape_57_" gradientUnits="userSpaceOnUse" x1="-2365.7886" y1="2374.1887" x2="-2365.782" y2="2373.6343" gradientTransform="matrix(985.4916 0 0 -152.5069 2333253 363735)">
	<stop  offset="0" style="stop-color:#CA0B1C"/>
	<stop  offset="1" style="stop-color:#FFFFFF"/>
</linearGradient>
<path id="Shape_26_" opacity="0.4145" fill="url(#Shape_57_)" enable-background="new    " d="M1291,1766.7
	c0,0,67.3-27.7,507.7-27.3c386.9,0.3,492.3-37.5,492.3-37.5v-87.7H1291V1766.7z"/>
<g>
	<g id="Group_1_" transform="translate(0.000000, 6.000000)">
		<path id="Shape_25_" fill="#FFFFFF" d="M1543.9,1827.9c51,0,92.5-43.1,92.5-96c0-52.9-41.5-96-92.5-96c-51,0-92.1,42.7-92.5,95.2
			h-20l31,38.6l31-38.6h-20.4c0.4-40.4,32.1-72.9,71-72.9c39.3,0,71,32.9,71,73.7s-31.7,73.7-71,73.7c-27.6,0-51.7-16.3-63.4-40.4
			l-14.7,18.1C1482.4,1810.5,1511.1,1827.9,1543.9,1827.9"/>
		<path fill="#FFFFFF" d="M1583.4,1722.1l-0.8-2.6c0-0.8-1.1-1.5-1.9-1.5h-7.9l-6.8-8.7c-0.4-0.4-1.1-1.1-2.6-1.5
			c-14.7-1.1-23-1.1-37.7,0c-1.1,0-2.3,1.1-1.9,1.5l-6.8,8.7h-7.9c-0.8,0-1.5,0.8-1.9,1.5l-0.8,2.6c0,0.4,0,0.8,0.4,0.8l4.5,2.3
			l-1.9,2.3c-1.1,1.1-1.5,3.4-1.5,5.7v24.9c0,1.1,0.8,1.9,1.5,1.9h12.1c0.8,0,1.5-1.1,1.5-1.9v-4.2h43.8v4.2c0,1.1,0.8,1.9,1.5,1.9
			h12.1c0.8,0,1.5-1.1,1.5-1.9V1733c0-2.3-0.4-4.2-1.5-5.7l-1.9-2.3l4.5-2.3C1583.4,1722.4,1583.4,1722.4,1583.4,1722.1z
			 M1527.4,1735.1c0,0.4-0.4,0.7-0.8,0.7l-11.2-0.4c-1.5,0-3.1-1.5-3.1-2.9v-2.2c0-1.1,0.8-1.5,1.2-1.5l11.2,1.5
			c1.5,0,2.7,1.1,2.7,2.6V1735.1z M1577.7,1733c0,1.5-1.5,3-3,3l-10.9,0.4c-0.4,0-0.8-0.4-0.8-0.8v-2.3c0-1.5,1.1-2.6,2.6-2.6
			l10.9-1.5c0.4,0,1.1,0.4,1.1,1.5V1733z"/>
	</g>
	<text transform="matrix(1 0 0 1 1670.6946 1768.5807)" fill="#FFFFFF" font-family="'Helvetica'" font-size="137px">Leasing</text>
</g>
<text transform="matrix(1 0 0 1 3040.833 1654.1418)" fill="#C90B1C" font-family="'Helvetica'" font-size="86px">Leasing</text>
<g id="Group-2_4_" transform="translate(221.000000, 29.000000)">
	<path id="Shape_51_" fill="#C90B1C" d="M2663.5,1524c7.2,0,13-5.8,13-13c0-7.2-5.8-13-13-13s-13,5.8-13,13
		C2650.5,1518.2,2656.3,1524,2663.5,1524"/>
	<path id="Shape_40_" fill="#C90B1C" d="M2698.7,1447.6c0-11.5-11.1-25-32.2-25c-18.3,0-30.3,13.5-30.3,24.5v7.2h24.1v-6.2
		c0-2.9,3.4-5.8,6.7-5.8c3.8,0,6.7,2.9,6.7,5.8c0,7.7-26.9,17.3-26.9,35.6c0,2.9,1.4,6.2,3.4,9.1h26c-1.9-2.4-2.9-4.8-2.9-7.7
		C2673.2,1471.6,2698.7,1467.3,2698.7,1447.6"/>
	<polygon id="Shape_30_" fill="#C90B1C" points="2211.7,1425 2204,1472.1 2195.9,1425 2180.5,1425 2172.3,1472.5 2164.6,1425 
		2141.5,1425 2160.3,1520.6 2180.5,1520.6 2188.2,1474.5 2195.9,1520.6 2215.6,1520.6 2234.8,1425 	"/>
	<polygon id="Shape_28_" fill="#C90B1C" points="2279.1,1425 2279.1,1461.5 2264.7,1461.5 2264.7,1425 2240.1,1425 2240.1,1520.6 
		2264.7,1520.6 2264.7,1482.6 2279.1,1482.6 2279.1,1520.6 2303.2,1520.6 2303.2,1425 	"/>
	<path id="Shape_27_" fill="#C90B1C" d="M2335.9,1488.4l4.8-34.1l4.8,34.1H2335.9z M2350.3,1520.6h22.6l-17.3-96.1h-28.9l-17.3,96.1
		h22.1l2.4-14.4h14.4L2350.3,1520.6z"/>
	<polygon id="Shape_24_" fill="#C90B1C" points="2422.5,1425 2367.2,1425 2367.2,1444.2 2383,1444.2 2383,1520.6 2407.1,1520.6 
		2407.1,1444.2 2422.5,1444.2 	"/>
	<path id="Shape_23_" fill="#C90B1C" d="M2459.5,1448c0-2.4,1-5.8,6.7-5.8c5.3,0,6.3,3.4,6.3,5.8v14.9h24.1v-17.3
		c0-13-13.5-23.6-30.3-23.6s-30.3,10.6-30.3,23.6v50.5c0,16.8,14.4,26.9,32.7,26.9c18.3,0,28.4-11.1,28.4-26.9v-13.9H2473v14.9
		c0,2.4-1,5.8-6.3,5.8c-5.3,0-6.7-2.9-6.7-5.8v-49H2459.5z"/>
	<path id="Shape_13_" fill="#C90B1C" d="M2597.6,1443.7c3.4,0,5.3,1.9,5.3,4.3v13.9c0,2.4-1.9,4.3-5.3,4.3h-5.8v-22.6H2597.6z
		 M2568.8,1425v96.1h23.1v-37h5.3c3.8,0,6.3,2.4,6.3,6.2v14.9c0,7.2,1.4,13,3.8,15.9h22.1c-1.9-3.4-2.9-9.6-2.9-15.9v-13.5
		c0-9.6-4.8-14.9-11.5-16.8c6.3-1.9,10.6-7.7,10.6-15.4v-12c0-13.5-9.6-22.6-24.5-22.6H2568.8z"/>
	<path id="Shape_12_" fill="#C90B1C" d="M2525.9,1488.4l4.8-34.1l4.8,34.1H2525.9z M2540.4,1520.6h22.6l-17.3-96.1h-28.9l-17.3,96.1
		h22.1l2.4-14.4h14.4L2540.4,1520.6z"/>
</g>
<text transform="matrix(1 0 0 1 2373.5493 1727.6029)" fill="#C90B1C" font-family="'Helvetica'" font-size="137px">Leasing</text>
<g id="Group-2_3_" transform="translate(221.000000, 29.000000)">
	<path id="Shape_9_" fill="#C90B1C" d="M3329.9,1546.7c7.2,0,13-5.8,13-13s-5.8-13-13-13s-13,5.8-13,13S3322.7,1546.7,3329.9,1546.7
		"/>
	<path id="Shape_8_" fill="#C90B1C" d="M3365,1470.3c0-11.5-11.1-25-32.2-25c-18.3,0-30.3,13.5-30.3,24.5v7.2h24.1v-6.2
		c0-2.9,3.4-5.8,6.7-5.8c3.8,0,6.7,2.9,6.7,5.8c0,7.7-26.9,17.3-26.9,35.6c0,2.9,1.4,6.2,3.4,9.1h26c-1.9-2.4-2.9-4.8-2.9-7.7
		C3339.5,1494.4,3365,1490,3365,1470.3"/>
	<polygon id="Shape_7_" fill="#C90B1C" points="2878.1,1447.7 2870.4,1494.8 2862.2,1447.7 2846.8,1447.7 2838.6,1495.3 
		2830.9,1447.7 2807.8,1447.7 2826.6,1543.4 2846.8,1543.4 2854.5,1497.2 2862.2,1543.4 2881.9,1543.4 2901.2,1447.7 	"/>
	<polygon id="Shape_6_" fill="#C90B1C" points="2945.5,1447.7 2945.5,1484.3 2931,1484.3 2931,1447.7 2906.5,1447.7 2906.5,1543.4 
		2931,1543.4 2931,1505.4 2945.5,1505.4 2945.5,1543.4 2969.5,1543.4 2969.5,1447.7 	"/>
	<path id="Shape_5_" fill="#C90B1C" d="M3002.2,1511.2l4.8-34.1l4.8,34.1H3002.2z M3016.7,1543.4h22.6l-17.3-96.1h-28.9l-17.3,96.1
		h22.1l2.4-14.4h14.4L3016.7,1543.4z"/>
	<polygon id="Shape_4_" fill="#C90B1C" points="3088.8,1447.7 3033.5,1447.7 3033.5,1467 3049.4,1467 3049.4,1543.4 3073.4,1543.4 
		3073.4,1467 3088.8,1467 	"/>
	<path id="Shape_3_" fill="#C90B1C" d="M3125.9,1470.8c0-2.4,1-5.8,6.7-5.8c5.3,0,6.3,3.4,6.3,5.8v14.9h24.1v-17.3
		c0-13-13.5-23.6-30.3-23.6c-16.8,0-30.3,10.6-30.3,23.6v50.5c0,16.8,14.4,26.9,32.7,26.9s28.4-11.1,28.4-26.9V1505h-24.1v14.9
		c0,2.4-1,5.8-6.3,5.8s-6.7-2.9-6.7-5.8v-49L3125.9,1470.8L3125.9,1470.8z"/>
	<path id="Shape_2_" fill="#C90B1C" d="M3264,1466.5c3.4,0,5.3,1.9,5.3,4.3v13.9c0,2.4-1.9,4.3-5.3,4.3h-5.8v-22.6h5.8V1466.5z
		 M3235.1,1447.7v96.1h23.1v-37h5.3c3.8,0,6.3,2.4,6.3,6.2v14.9c0,7.2,1.4,13,3.8,15.9h22.1c-1.9-3.4-2.9-9.6-2.9-15.9v-13.5
		c0-9.6-4.8-14.9-11.5-16.8c6.3-1.9,10.6-7.7,10.6-15.4v-12c0-13.5-9.6-22.6-24.5-22.6h-32.3V1447.7z"/>
	<path id="Shape_1_" fill="#C90B1C" d="M3192.3,1511.2l4.8-34.1l4.8,34.1H3192.3z M3206.7,1543.4h22.6l-17.3-96.1h-28.9l-17.3,96.1
		h22.1l2.4-14.4h14.4L3206.7,1543.4z"/>
</g>
<text transform="matrix(1 0 0 1 3672.833 1652.1119)" fill="#FFFFFF" font-family="'Helvetica'" font-size="86px">Leasing</text>
<g id="Group-2_2_" transform="translate(221.000000, 29.000000)">
	<path id="Shape_36_" fill="#FFFFFF" d="M3961.9,1544.6c7.2,0,13-5.8,13-13s-5.8-13-13-13s-13,5.8-13,13
		S3954.7,1544.6,3961.9,1544.6"/>
	<path id="Shape_35_" fill="#FFFFFF" d="M3997,1468.2c0-11.5-11.1-25-32.2-25c-18.3,0-30.3,13.5-30.3,24.5v7.2h24.1v-6.2
		c0-2.9,3.4-5.8,6.7-5.8c3.8,0,6.7,2.9,6.7,5.8c0,7.7-26.9,17.3-26.9,35.6c0,2.9,1.4,6.2,3.4,9.1h26c-1.9-2.4-2.9-4.8-2.9-7.7
		C3971.5,1492.3,3997,1487.9,3997,1468.2"/>
	<polygon id="Shape_34_" fill="#FFFFFF" points="3510.1,1445.6 3502.4,1492.7 3494.2,1445.6 3478.8,1445.6 3470.6,1493.2 
		3462.9,1445.6 3439.8,1445.6 3458.6,1541.3 3478.8,1541.3 3486.5,1495.1 3494.2,1541.3 3513.9,1541.3 3533.2,1445.6 	"/>
	<polygon id="Shape_33_" fill="#FFFFFF" points="3577.5,1445.6 3577.5,1482.2 3563,1482.2 3563,1445.6 3538.5,1445.6 3538.5,1541.3 
		3563,1541.3 3563,1503.3 3577.5,1503.3 3577.5,1541.3 3601.5,1541.3 3601.5,1445.6 	"/>
	<path id="Shape_32_" fill="#FFFFFF" d="M3634.2,1509.1l4.8-34.1l4.8,34.1H3634.2z M3648.7,1541.3h22.6l-17.3-96.1h-28.9l-17.3,96.1
		h22.1l2.4-14.4h14.4L3648.7,1541.3z"/>
	<polygon id="Shape_31_" fill="#FFFFFF" points="3720.8,1445.6 3665.5,1445.6 3665.5,1464.9 3681.4,1464.9 3681.4,1541.3 
		3705.4,1541.3 3705.4,1464.9 3720.8,1464.9 	"/>
	<path id="Shape_29_" fill="#FFFFFF" d="M3757.9,1468.7c0-2.4,1-5.8,6.7-5.8c5.3,0,6.3,3.4,6.3,5.8v14.9h24.1v-17.3
		c0-13-13.5-23.6-30.3-23.6c-16.8,0-30.3,10.6-30.3,23.6v50.5c0,16.8,14.4,26.9,32.7,26.9s28.4-11.1,28.4-26.9v-13.9h-24.1v14.9
		c0,2.4-1,5.8-6.3,5.8s-6.7-2.9-6.7-5.8v-49L3757.9,1468.7L3757.9,1468.7z"/>
	<path id="Shape_11_" fill="#FFFFFF" d="M3896,1464.4c3.4,0,5.3,1.9,5.3,4.3v13.9c0,2.4-1.9,4.3-5.3,4.3h-5.8v-22.6h5.8V1464.4z
		 M3867.1,1445.6v96.1h23.1v-37h5.3c3.8,0,6.3,2.4,6.3,6.2v14.9c0,7.2,1.4,13,3.8,15.9h22.1c-1.9-3.4-2.9-9.6-2.9-15.9v-13.5
		c0-9.6-4.8-14.9-11.5-16.8c6.3-1.9,10.6-7.7,10.6-15.4v-12c0-13.5-9.6-22.6-24.5-22.6h-32.3V1445.6z"/>
	<path id="Shape_10_" fill="#FFFFFF" d="M3824.3,1509.1l4.8-34.1l4.8,34.1H3824.3z M3838.7,1541.3h22.6l-17.3-96.1h-28.9l-17.3,96.1
		h22.1l2.4-14.4h14.4L3838.7,1541.3z"/>
</g>
<text transform="matrix(1 0 0 1 4272.7773 1529.9183)" fill="#C90B1C" font-family="'Helvetica'" font-size="11.0152px">Leasing</text>
<g id="Group-2_5_" transform="translate(221.000000, 29.000000)">
	<path id="Shape_46_" fill="#C90B1C" d="M4117.1,1490.9c0.9,0,1.7-0.7,1.7-1.7c0-0.9-0.7-1.7-1.7-1.7c-0.9,0-1.7,0.7-1.7,1.7
		C4115.4,1490.1,4116.2,1490.9,4117.1,1490.9"/>
	<path id="Shape_45_" fill="#C90B1C" d="M4121.6,1481.1c0-1.5-1.4-3.2-4.1-3.2c-2.3,0-3.9,1.7-3.9,3.1v0.9h3.1v-0.8
		c0-0.4,0.4-0.7,0.9-0.7c0.5,0,0.9,0.4,0.9,0.7c0,1-3.4,2.2-3.4,4.6c0,0.4,0.2,0.8,0.4,1.2h3.3c-0.2-0.3-0.4-0.6-0.4-1
		C4118.3,1484.2,4121.6,1483.6,4121.6,1481.1"/>
	<polygon id="Shape_44_" fill="#C90B1C" points="4059.2,1478.2 4058.3,1484.2 4057.2,1478.2 4055.2,1478.2 4054.2,1484.3 
		4053.2,1478.2 4050.2,1478.2 4052.6,1490.4 4055.2,1490.4 4056.2,1484.5 4057.2,1490.4 4059.7,1490.4 4062.2,1478.2 	"/>
	<polygon id="Shape_43_" fill="#C90B1C" points="4067.9,1478.2 4067.9,1482.9 4066,1482.9 4066,1478.2 4062.9,1478.2 4062.9,1490.4 
		4066,1490.4 4066,1485.6 4067.9,1485.6 4067.9,1490.4 4071,1490.4 4071,1478.2 	"/>
	<path id="Shape_42_" fill="#C90B1C" d="M4075.1,1486.3l0.6-4.4l0.6,4.4H4075.1z M4077,1490.4h2.9l-2.2-12.3h-3.7l-2.2,12.3h2.8
		l0.3-1.8h1.8L4077,1490.4z"/>
	<polygon id="Shape_41_" fill="#C90B1C" points="4086.2,1478.2 4079.1,1478.2 4079.1,1480.7 4081.2,1480.7 4081.2,1490.4 
		4084.3,1490.4 4084.3,1480.7 4086.2,1480.7 	"/>
	<path id="Shape_39_" fill="#C90B1C" d="M4091,1481.1c0-0.3,0.1-0.7,0.9-0.7c0.7,0,0.8,0.4,0.8,0.7v1.9h3.1v-2.2c0-1.7-1.7-3-3.9-3
		c-2.2,0-3.9,1.4-3.9,3v6.5c0,2.2,1.8,3.4,4.2,3.4c2.3,0,3.6-1.4,3.6-3.4v-1.8h-3.1v1.9c0,0.3-0.1,0.7-0.8,0.7
		c-0.7,0-0.9-0.4-0.9-0.7L4091,1481.1L4091,1481.1L4091,1481.1z"/>
	<path id="Shape_38_" fill="#C90B1C" d="M4108.7,1480.6c0.4,0,0.7,0.2,0.7,0.6v1.8c0,0.3-0.2,0.6-0.7,0.6h-0.7v-2.9L4108.7,1480.6
		L4108.7,1480.6z M4105,1478.2v12.3h3v-4.7h0.7c0.5,0,0.8,0.3,0.8,0.8v1.9c0,0.9,0.2,1.7,0.5,2h2.8c-0.2-0.4-0.4-1.2-0.4-2v-1.7
		c0-1.2-0.6-1.9-1.5-2.2c0.8-0.2,1.4-1,1.4-2v-1.5c0-1.7-1.2-2.9-3.1-2.9L4105,1478.2L4105,1478.2z"/>
	<path id="Shape_37_" fill="#C90B1C" d="M4099.5,1486.3l0.6-4.4l0.6,4.4H4099.5z M4101.3,1490.4h2.9l-2.2-12.3h-3.7l-2.2,12.3h2.8
		l0.3-1.8h1.8L4101.3,1490.4z"/>
</g>
<text transform="matrix(1 0 0 1 4272.7773 1462.7767)" fill="#C90B1C" font-family="'Helvetica'" font-size="11.0152px">Leasing</text>
<g id="Group-2_6_" transform="translate(221.000000, 29.000000)">
	<path id="Shape_56_" fill="#C90B1C" d="M4117.1,1423.7c0.9,0,1.7-0.7,1.7-1.7c0-0.9-0.7-1.7-1.7-1.7c-0.9,0-1.7,0.7-1.7,1.7
		C4115.4,1423,4116.2,1423.7,4117.1,1423.7"/>
	<path id="Shape_55_" fill="#C90B1C" d="M4121.6,1413.9c0-1.5-1.4-3.2-4.1-3.2c-2.3,0-3.9,1.7-3.9,3.1v0.9h3.1v-0.8
		c0-0.4,0.4-0.7,0.9-0.7c0.5,0,0.9,0.4,0.9,0.7c0,1-3.4,2.2-3.4,4.6c0,0.4,0.2,0.8,0.4,1.2h3.3c-0.2-0.3-0.4-0.6-0.4-1
		C4118.3,1417,4121.6,1416.5,4121.6,1413.9"/>
	<polygon id="Shape_54_" fill="#C90B1C" points="4059.2,1411 4058.3,1417.1 4057.2,1411 4055.2,1411 4054.2,1417.1 4053.2,1411 
		4050.2,1411 4052.6,1423.3 4055.2,1423.3 4056.2,1417.4 4057.2,1423.3 4059.7,1423.3 4062.2,1411 	"/>
	<polygon id="Shape_53_" fill="#C90B1C" points="4067.9,1411 4067.9,1415.7 4066,1415.7 4066,1411 4062.9,1411 4062.9,1423.3 
		4066,1423.3 4066,1418.4 4067.9,1418.4 4067.9,1423.3 4071,1423.3 4071,1411 	"/>
	<path id="Shape_52_" fill="#C90B1C" d="M4075.1,1419.2l0.6-4.4l0.6,4.4H4075.1z M4077,1423.3h2.9l-2.2-12.3h-3.7l-2.2,12.3h2.8
		l0.3-1.8h1.8L4077,1423.3z"/>
	<polygon id="Shape_50_" fill="#C90B1C" points="4086.2,1411 4079.1,1411 4079.1,1413.5 4081.2,1413.5 4081.2,1423.3 4084.3,1423.3 
		4084.3,1413.5 4086.2,1413.5 	"/>
	<path id="Shape_49_" fill="#C90B1C" d="M4091,1414c0-0.3,0.1-0.7,0.9-0.7c0.7,0,0.8,0.4,0.8,0.7v1.9h3.1v-2.2c0-1.7-1.7-3-3.9-3
		c-2.2,0-3.9,1.4-3.9,3v6.5c0,2.2,1.8,3.4,4.2,3.4c2.3,0,3.6-1.4,3.6-3.4v-1.8h-3.1v1.9c0,0.3-0.1,0.7-0.8,0.7
		c-0.7,0-0.9-0.4-0.9-0.7L4091,1414L4091,1414L4091,1414z"/>
	<path id="Shape_48_" fill="#C90B1C" d="M4108.7,1413.5c0.4,0,0.7,0.2,0.7,0.6v1.8c0,0.3-0.2,0.6-0.7,0.6h-0.7v-2.9L4108.7,1413.5
		L4108.7,1413.5z M4105,1411v12.3h3v-4.7h0.7c0.5,0,0.8,0.3,0.8,0.8v1.9c0,0.9,0.2,1.7,0.5,2h2.8c-0.2-0.4-0.4-1.2-0.4-2v-1.7
		c0-1.2-0.6-1.9-1.5-2.2c0.8-0.2,1.4-1,1.4-2v-1.5c0-1.7-1.2-2.9-3.1-2.9L4105,1411L4105,1411z"/>
	<path id="Shape_47_" fill="#C90B1C" d="M4099.5,1419.2l0.6-4.4l0.6,4.4H4099.5z M4101.3,1423.3h2.9l-2.2-12.3h-3.7l-2.2,12.3h2.8
		l0.3-1.8h1.8L4101.3,1423.3z"/>
</g>
</svg>
