<?xml version="1.0" encoding="utf-8"?>
<!-- Generator: Adobe Illustrator 22.1.0, SVG Export Plug-In . SVG Version: 6.00 Build 0)  -->
<svg version="1.1" id="Layer_1" xmlns="http://www.w3.org/2000/svg" xmlns:xlink="http://www.w3.org/1999/xlink" x="0px" y="0px"
	 viewBox="2351.3 1251.9 581.6 134.3" enable-background="new 2351.3 1251.9 581.6 134.3" xml:space="preserve">
<g id="Group-2_5_" transform="translate(221.000000, 29.000000)">
	<path id="Shape_46_" fill="#FFFFFF" d="M2663.5,1338c7.2,0,13-5.8,13-13c0-7.2-5.8-13-13-13c-7.2,0-13,5.8-13,13
		C2650.5,1332.2,2656.3,1338,2663.5,1338"/>
	<path id="Shape_45_" fill="#FFFFFF" d="M2698.7,1261.6c0-11.5-11.1-25-32.2-25c-18.3,0-30.3,13.5-30.3,24.5v7.2h24.1v-6.2
		c0-2.9,3.4-5.8,6.7-5.8c3.8,0,6.7,2.9,6.7,5.8c0,7.7-26.9,17.3-26.9,35.6c0,2.9,1.4,6.2,3.4,9.1h26c-1.9-2.4-2.9-4.8-2.9-7.7
		C2673.2,1285.6,2698.7,1281.3,2698.7,1261.6"/>
	<polygon id="Shape_44_" fill="#FFFFFF" points="2211.7,1239 2204,1286.1 2195.9,1239 2180.5,1239 2172.3,1286.5 2164.6,1239 
		2141.5,1239 2160.3,1334.6 2180.5,1334.6 2188.2,1288.5 2195.9,1334.6 2215.6,1334.6 2234.8,1239 	"/>
	<polygon id="Shape_43_" fill="#FFFFFF" points="2279.1,1239 2279.1,1275.5 2264.7,1275.5 2264.7,1239 2240.1,1239 2240.1,1334.6 
		2264.7,1334.6 2264.7,1296.6 2279.1,1296.6 2279.1,1334.6 2303.2,1334.6 2303.2,1239 	"/>
	<path id="Shape_42_" fill="#FFFFFF" d="M2335.9,1302.4l4.8-34.1l4.8,34.1H2335.9z M2350.3,1334.6h22.6l-17.3-96.1h-28.9l-17.3,96.1
		h22.1l2.4-14.4h14.4L2350.3,1334.6z"/>
	<polygon id="Shape_41_" fill="#FFFFFF" points="2422.5,1239 2367.2,1239 2367.2,1258.2 2383,1258.2 2383,1334.6 2407.1,1334.6 
		2407.1,1258.2 2422.5,1258.2 	"/>
	<path id="Shape_39_" fill="#FFFFFF" d="M2459.5,1262c0-2.4,1-5.8,6.7-5.8c5.3,0,6.3,3.4,6.3,5.8v14.9h24.1v-17.3
		c0-13-13.5-23.6-30.3-23.6s-30.3,10.6-30.3,23.6v50.5c0,16.8,14.4,26.9,32.7,26.9c18.3,0,28.4-11.1,28.4-26.9v-13.9H2473v14.9
		c0,2.4-1,5.8-6.3,5.8c-5.3,0-6.7-2.9-6.7-5.8v-49H2459.5z"/>
	<path id="Shape_38_" fill="#FFFFFF" d="M2597.6,1257.7c3.4,0,5.3,1.9,5.3,4.3v13.9c0,2.4-1.9,4.3-5.3,4.3h-5.8v-22.6H2597.6z
		 M2568.8,1239v96.1h23.1v-37h5.3c3.8,0,6.3,2.4,6.3,6.2v14.9c0,7.2,1.4,13,3.8,15.9h22.1c-1.9-3.4-2.9-9.6-2.9-15.9v-13.5
		c0-9.6-4.8-14.9-11.5-16.8c6.3-1.9,10.6-7.7,10.6-15.4v-12c0-13.5-9.6-22.6-24.5-22.6H2568.8z"/>
	<path id="Shape_37_" fill="#FFFFFF" d="M2525.9,1302.4l4.8-34.1l4.8,34.1H2525.9z M2540.4,1334.6h22.6l-17.3-96.1h-28.9l-17.3,96.1
		h22.1l2.4-14.4h14.4L2540.4,1334.6z"/>
</g>
</svg>
